<svg id="Component_1_1" data-name="Component 1 – 1" xmlns="http://www.w3.org/2000/svg" width="219" height="73" viewBox="0 0 219 73">
  <path id="Exclusion_1" data-name="Exclusion 1" d="M-657.572-162H-797.428a42.2,42.2,0,0,1-15.4-2.868,39.778,39.778,0,0,1-12.578-7.822,36.366,36.366,0,0,1-8.48-11.6A33.856,33.856,0,0,1-837-198.5a33.854,33.854,0,0,1,3.11-14.207,36.365,36.365,0,0,1,8.48-11.6,39.778,39.778,0,0,1,12.578-7.822,42.2,42.2,0,0,1,15.4-2.868h139.856a42.2,42.2,0,0,1,15.4,2.868,39.777,39.777,0,0,1,12.578,7.822,36.367,36.367,0,0,1,8.48,11.6A33.854,33.854,0,0,1-618-198.5a33.856,33.856,0,0,1-3.11,14.208,36.367,36.367,0,0,1-8.48,11.6,39.777,39.777,0,0,1-12.578,7.822A42.2,42.2,0,0,1-657.572-162ZM-775.3-202.6h0c.186,1.436.522,3.2,1,5.236.425,1.938.741,3.594.94,4.92a29.934,29.934,0,0,1,.3,4.4,10.886,10.886,0,0,1-.841,4.16,9.931,9.931,0,0,1-2.64,3.64,14.02,14.02,0,0,1-5.04,2.96c-1.194.424-1.8.8-1.8,1.12a1.361,1.361,0,0,0,.319.9,1.351,1.351,0,0,0,1.08.38,7,7,0,0,0,3.22-1.02,17.256,17.256,0,0,0,3.58-2.66,14.3,14.3,0,0,0,2.92-4.16,12.913,12.913,0,0,0,1.24-5.68,25.87,25.87,0,0,0-.38-4.341c-.253-1.477-.637-3.328-1.14-5.5-.69-3.081-1.134-5.382-1.319-6.84a.692.692,0,0,0,.1-.22,1.087,1.087,0,0,0,.059-.34c0-.16-.128-.314-.38-.46a1.478,1.478,0,0,0-.74-.22.619.619,0,0,0-.42.159.925.925,0,0,0-.26.4,32.213,32.213,0,0,1-2.1,5.38,27.206,27.206,0,0,1-3.06,4.939,23.447,23.447,0,0,1-3.24,3.521,4,4,0,0,1-2.32,1.12,1.032,1.032,0,0,1-.94-.48,3.079,3.079,0,0,1-.3-1.561,13,13,0,0,1,1.381-5.019A19.958,19.958,0,0,1-782.6-203.2c1.394-1.513,2.786-2.28,4.14-2.28a.73.73,0,0,1,.52.24,2.742,2.742,0,0,1,.42.54c.119.2.22.3.3.3.292,0,.44-.363.44-1.08a2.3,2.3,0,0,0-.46-1.44,1.548,1.548,0,0,0-1.3-.6c-1.619,0-3.288.888-4.961,2.641a22.816,22.816,0,0,0-4.2,6.32,15.925,15.925,0,0,0-1.68,6.4,4.921,4.921,0,0,0,.581,2.58,1.953,1.953,0,0,0,1.779.94,4.913,4.913,0,0,0,2.9-1.12,19.85,19.85,0,0,0,3.34-3.4,32.787,32.787,0,0,0,3.379-5A34.965,34.965,0,0,0-775.3-202.6Zm88.777-21.4-25.961,37.069h19.738l-3.706,6.361h18.522l-2.229,3.8h39.192l-19.6-33.43-5.852,9.983L-675.232-217l-2.9,4.982L-686.526-224Zm-127.616,15.04h0c0,.26-.013.751-.04,1.5-.027.729-.041,1.53-.041,2.38,0,1,.039,2.679.12,5.12.159,4.725.24,8.17.24,10.24a12.443,12.443,0,0,0,.1,1.8c.066.425.1.667.1.72.107.557.362.84.76.84a1.617,1.617,0,0,0,.92-.3.881.881,0,0,0,.44-.74,3.615,3.615,0,0,0-.26-.9,5.338,5.338,0,0,1-.26-1.82c0-2.282-.067-5.081-.2-8.321.264-.079.829-.281,1.68-.6s1.7-.667,2.52-1.039a20.886,20.886,0,0,0,5.359-3.22,5.269,5.269,0,0,0,1.92-4.06,3.03,3.03,0,0,0-2.08-2.82,14.229,14.229,0,0,0-5.719-.941,26.523,26.523,0,0,0-4.8.4,33.324,33.324,0,0,0-4.019,1.08,26.315,26.315,0,0,0-3.7,1.5c-1.009.518-1.52.955-1.52,1.3a1.014,1.014,0,0,0,.239.679.722.722,0,0,0,.561.28,1.717,1.717,0,0,0,.7-.239c.3-.157.616-.332.94-.52.73-.433,1.28-.734,1.68-.92a42.551,42.551,0,0,1,4.358-1.4Zm59.12,18.96c-.212,0-.63.3-1.24.9s-.92,1.022-.92,1.26a.978.978,0,0,0,.6.88,5.625,5.625,0,0,0,2.319.32,12.369,12.369,0,0,0,4.84-.98,10.143,10.143,0,0,0,3.74-2.6,5.105,5.105,0,0,0,1.419-3.38,2.989,2.989,0,0,0-1.64-2.76,18.737,18.737,0,0,0-4.72-1.64,6.1,6.1,0,0,0-.64-.14,4.674,4.674,0,0,1-.72-.18,29.05,29.05,0,0,1-4.1-1.139,1.518,1.518,0,0,1-1.1-1.42,3.075,3.075,0,0,1,1.4-2.52,10.144,10.144,0,0,1,3.12-1.56,9.9,9.9,0,0,1,2.52-.52,1.034,1.034,0,0,1,.56.18.987.987,0,0,0,.52.18,1.037,1.037,0,0,0,.96-.58,2.234,2.234,0,0,0,.32-1.059c0-.531-.458-.8-1.36-.8a11.759,11.759,0,0,0-3.76.92,14.56,14.56,0,0,0-4.32,2.52,4.625,4.625,0,0,0-1.879,3.52,2.189,2.189,0,0,0,.879,1.78,7.283,7.283,0,0,0,2.34,1.16c.964.3,2.344.661,4.1,1.06,1.579.368,2.73.657,3.42.859a4.146,4.146,0,0,1,1.7.941,2.258,2.258,0,0,1,.68,1.72,2.907,2.907,0,0,1-1.08,2.119,8.165,8.165,0,0,1-2.78,1.62,9.86,9.86,0,0,1-3.379.62,4.054,4.054,0,0,1-1.22-.16c-.331-.106-.5-.213-.5-.319,0-.08.067-.174.2-.28a.432.432,0,0,0,.2-.32C-754.542-189.933-754.7-190-755.022-190Zm-41.12-17.56a.6.6,0,0,0-.54.22,1.251,1.251,0,0,0-.14.661c.027,1.136.081,2.744.16,4.78s.173,4.16.28,6.34c.186,3.265.368,5.512.54,6.68s.449,1.774.82,1.8c.045,0,.09.006.134.006a1.17,1.17,0,0,0,.646-.186.7.7,0,0,0,.34-.62,17.325,17.325,0,0,0-.28-2.239c-.239-1.618-.36-2.479-.36-2.561-.159-1.619-.24-3.8-.24-6.48l.04-4.72a11.567,11.567,0,0,0-.24-2.921A1.082,1.082,0,0,0-796.142-207.56Zm30.56-10.4a1.091,1.091,0,0,0-.52.08c-.159.107-.24.349-.24.72a14.754,14.754,0,0,0,.24,1.92,18.252,18.252,0,0,1,.28,2l.08,2.44a9.376,9.376,0,0,0,.16,2.48.817.817,0,0,0,.68.4,1.059,1.059,0,0,0,.52-.16c.239-.132.427-.623.56-1.46a19.1,19.1,0,0,0,.2-2.94,26.878,26.878,0,0,0-.159-2.98,7.556,7.556,0,0,0-.36-1.86,1.177,1.177,0,0,0-.6-.46A2.233,2.233,0,0,0-765.581-217.96Zm-31.441,2.8a1.255,1.255,0,0,0-.86.4,1.168,1.168,0,0,0-.42.84c0,.24.236.549.7.92a2.228,2.228,0,0,0,1.38.561c.876,0,1.32-.2,1.32-.6a1.962,1.962,0,0,0-.4-.64,8.789,8.789,0,0,0-.72-.841,1.88,1.88,0,0,0-.7-.54ZM-656.1-180.57h-21.829l3.729-6.361h-18.545l14.614-25.087,10.145,14.486,1.572-2.682,9.971,18.99.342.652Zm-18.1-6.361h13.638l-7.424-10.6-6.214,10.6h0ZM-812.422-200.24h0c0-.975-.013-1.8-.04-2.439l-.041-2.92c0-.678.02-1.419.06-2.2s.073-1.268.1-1.48a30.4,30.4,0,0,1,3.76-.24,13.9,13.9,0,0,1,4.24.56c1.141.372,1.72,1.018,1.72,1.921a3.954,3.954,0,0,1-1.8,3.02,20.474,20.474,0,0,1-4.44,2.58,17.073,17.073,0,0,1-3.559,1.2Z" transform="translate(837 235)" fill="#6b2828"/>
</svg>
